<svg width="35" height="34" viewBox="0 0 35 34" fill="none" xmlns="http://www.w3.org/2000/svg">
<mask id="mask0_2_166" style="mask-type:alpha" maskUnits="userSpaceOnUse" x="0" y="0" width="35" height="34">
<rect x="0.166668" width="34" height="34" fill="#D9D9D9"/>
</mask>
<g mask="url(#mask0_2_166)">
<path d="M11.5 26.9166C8.7375 26.9166 6.3941 25.9544 4.46979 24.0301C2.54549 22.1058 1.58334 19.7624 1.58334 16.9999C1.58334 14.2374 2.54549 11.894 4.46979 9.96971C6.3941 8.0454 8.7375 7.08325 11.5 7.08325C12.1375 7.08325 12.7573 7.14228 13.3594 7.26034C13.9615 7.37839 14.5458 7.54367 15.1125 7.75617C13.7431 8.91311 12.6806 10.2944 11.925 11.8999C11.1694 13.5055 10.7917 15.2055 10.7917 16.9999C10.7917 18.7944 11.1694 20.4944 11.925 22.0999C12.6806 23.7055 13.7431 25.0867 15.1125 26.2437C14.5458 26.4562 13.9615 26.6214 13.3594 26.7395C12.7573 26.8576 12.1375 26.9166 11.5 26.9166ZM22.8333 26.9166C22.1958 26.9166 21.576 26.8576 20.974 26.7395C20.3719 26.6214 19.7875 26.4562 19.2208 26.2437C19.6222 25.9131 20 25.553 20.3542 25.1635C20.7083 24.7739 21.0389 24.3666 21.3458 23.9416C21.6056 23.9888 21.8535 24.0242 22.0896 24.0478C22.3257 24.0714 22.5736 24.0833 22.8333 24.0833C24.7931 24.0833 26.4635 23.3926 27.8448 22.0114C29.226 20.6301 29.9167 18.9596 29.9167 16.9999C29.9167 15.0402 29.226 13.3697 27.8448 11.9885C26.4635 10.6072 24.7931 9.91659 22.8333 9.91659C22.5736 9.91659 22.3257 9.92839 22.0896 9.952C21.8535 9.97561 21.6056 10.011 21.3458 10.0583C21.0389 9.63325 20.7083 9.22596 20.3542 8.83638C20 8.44679 19.6222 8.08672 19.2208 7.75617C19.7875 7.54367 20.3719 7.37839 20.974 7.26034C21.576 7.14228 22.1958 7.08325 22.8333 7.08325C25.5958 7.08325 27.9392 8.0454 29.8635 9.96971C31.7878 11.894 32.75 14.2374 32.75 16.9999C32.75 19.7624 31.7878 22.1058 29.8635 24.0301C27.9392 25.9544 25.5958 26.9166 22.8333 26.9166ZM17.1667 25.1458C15.8208 24.2249 14.776 23.0444 14.0323 21.6041C13.2885 20.1638 12.9167 18.6291 12.9167 16.9999C12.9167 15.3708 13.2885 13.836 14.0323 12.3958C14.776 10.9555 15.8208 9.77492 17.1667 8.85409C18.5125 9.77492 19.5573 10.9555 20.301 12.3958C21.0448 13.836 21.4167 15.3708 21.4167 16.9999C21.4167 18.6291 21.0448 20.1638 20.301 21.6041C19.5573 23.0444 18.5125 24.2249 17.1667 25.1458Z" fill="#7D8792"/>
</g>
</svg>
