<svg width="35" height="34" viewBox="0 0 35 34" fill="none" xmlns="http://www.w3.org/2000/svg">
<mask id="mask0_2_158" style="mask-type:alpha" maskUnits="userSpaceOnUse" x="0" y="0" width="35" height="34">
<rect x="0.833313" width="34" height="34" fill="#D9D9D9"/>
</mask>
<g mask="url(#mask0_2_158)">
<path d="M15.4958 28.0499L15.9208 26.0666C15.9916 25.7596 16.1392 25.5058 16.3635 25.3051C16.5878 25.1044 16.8653 24.9805 17.1958 24.9333L21.5875 24.5791C21.8944 24.5319 22.1778 24.5909 22.4375 24.7562C22.6972 24.9214 22.8861 25.1458 23.0041 25.4291L23.5708 26.7749C24.4916 26.2319 25.318 25.5767 26.05 24.8093C26.7819 24.0419 27.3958 23.186 27.8916 22.2416L27.4666 22.0291C27.2069 21.8402 27.018 21.61 26.9 21.3385C26.7819 21.0669 26.7583 20.7777 26.8291 20.4708L27.8208 16.1499C27.8916 15.8666 28.0392 15.6305 28.2635 15.4416C28.4878 15.2527 28.7416 15.1346 29.025 15.0874C28.9069 14.4971 28.7593 13.9246 28.5823 13.3697C28.4052 12.8148 28.175 12.2777 27.8916 11.7583C27.6791 11.8763 27.4489 11.9294 27.201 11.9176C26.9531 11.9058 26.7347 11.8291 26.5458 11.6874L22.7916 9.42075C22.5319 9.25547 22.343 9.03117 22.225 8.74784C22.1069 8.4645 22.0833 8.16936 22.1541 7.86242L22.4375 6.65825C21.7055 6.3277 20.9559 6.07978 20.1885 5.9145C19.4212 5.74922 18.6361 5.66659 17.8333 5.66659C17.5028 5.66659 17.1604 5.68429 16.8062 5.71971C16.4521 5.75513 16.1097 5.80825 15.7791 5.87909L16.8416 8.28742C16.9597 8.57075 16.9892 8.86589 16.9302 9.17284C16.8712 9.47978 16.7236 9.7277 16.4875 9.91659L13.1583 12.8208C12.9222 13.0333 12.6448 13.1513 12.326 13.1749C12.0073 13.1985 11.718 13.1277 11.4583 12.9624L8.19998 10.9791C7.65692 11.8763 7.23782 12.8385 6.94268 13.8655C6.64754 14.8926 6.49997 15.9374 6.49997 16.9999C6.49997 17.3777 6.5472 17.9916 6.64164 18.8416L9.75831 18.5583C10.0889 18.511 10.3899 18.5642 10.6614 18.7176C10.933 18.8711 11.1278 19.1013 11.2458 19.4083L12.9458 23.4458C13.0639 23.7291 13.0934 24.0242 13.0344 24.3312C12.9753 24.6381 12.8278 24.886 12.5916 25.0749L11.2458 26.2083C11.8833 26.6805 12.5621 27.0701 13.2823 27.377C14.0024 27.6839 14.7403 27.9083 15.4958 28.0499ZM18.0458 21.9583C17.7389 22.0055 17.4555 21.9464 17.1958 21.7812C16.9361 21.6159 16.7472 21.3916 16.6291 21.1083L14.7166 16.7166C14.5986 16.4333 14.5809 16.1381 14.6635 15.8312C14.7462 15.5242 14.9055 15.2763 15.1416 15.0874L18.7541 12.0416C18.9666 11.8291 19.2264 11.711 19.5333 11.6874C19.8403 11.6638 20.1236 11.7346 20.3833 11.8999L24.35 14.2374C24.6097 14.4027 24.8104 14.627 24.9521 14.9103C25.0937 15.1937 25.1291 15.4888 25.0583 15.7958L23.925 20.3999C23.8541 20.7069 23.7125 20.9607 23.5 21.1614C23.2875 21.3621 23.0278 21.486 22.7208 21.5333L18.0458 21.9583ZM17.8333 31.1666C15.8736 31.1666 14.0319 30.7947 12.3083 30.051C10.5847 29.3072 9.08539 28.2978 7.81039 27.0228C6.53539 25.7478 5.52602 24.2485 4.78227 22.5249C4.03852 20.8013 3.66664 18.9596 3.66664 16.9999C3.66664 15.0402 4.03852 13.1985 4.78227 11.4749C5.52602 9.75131 6.53539 8.252 7.81039 6.977C9.08539 5.702 10.5847 4.69263 12.3083 3.94888C14.0319 3.20513 15.8736 2.83325 17.8333 2.83325C19.793 2.83325 21.6347 3.20513 23.3583 3.94888C25.0819 4.69263 26.5812 5.702 27.8562 6.977C29.1312 8.252 30.1406 9.75131 30.8843 11.4749C31.6281 13.1985 32 15.0402 32 16.9999C32 18.9596 31.6281 20.8013 30.8843 22.5249C30.1406 24.2485 29.1312 25.7478 27.8562 27.0228C26.5812 28.2978 25.0819 29.3072 23.3583 30.051C21.6347 30.7947 19.793 31.1666 17.8333 31.1666Z" fill="#7D8792"/>
</g>
</svg>
